<svg id="visual" viewBox="0 0 1728 1117" width="1728" height="1117" xmlns="http://www.w3.org/2000/svg" xmlns:xlink="http://www.w3.org/1999/xlink" version="1.1"><rect x="0" y="0" width="1728" height="1117" fill="#001220"></rect><defs><linearGradient id="grad1_0" x1="35.4%" y1="0%" x2="100%" y2="100%"><stop offset="19.059982094897045%" stop-color="#001220" stop-opacity="1"></stop><stop offset="80.94001790510296%" stop-color="#001220" stop-opacity="1"></stop></linearGradient></defs><defs><linearGradient id="grad2_0" x1="0%" y1="0%" x2="64.6%" y2="100%"><stop offset="19.059982094897045%" stop-color="#001220" stop-opacity="1"></stop><stop offset="80.94001790510296%" stop-color="#001220" stop-opacity="1"></stop></linearGradient></defs><g transform="translate(1728, 0)"><path d="M0 463C-23 452.9 -46 442.9 -69.6 439.5C-93.2 436.1 -117.5 439.4 -142.1 437.5C-166.8 435.6 -191.7 428.5 -210.2 412.5C-228.7 396.4 -240.7 371.4 -256.9 353.5C-273.1 335.7 -293.5 325.1 -309 309C-324.5 292.9 -335.1 271.4 -347.9 252.7C-360.6 234.1 -375.5 218.2 -393.8 200.7C-412.1 183.1 -433.9 163.9 -430.8 140C-427.7 116.1 -399.8 87.6 -401 63.5C-402.2 39.4 -432.6 19.7 -463 0L0 0Z" fill="#4DFF58"></path></g><g transform="translate(0, 1117)"><path d="M0 -463C24.2 -455.7 48.3 -448.5 68.7 -433.6C89 -418.7 105.6 -396.1 126.1 -388C146.5 -380 170.9 -386.5 198.4 -389.4C225.9 -392.2 256.5 -391.3 271 -373C285.4 -354.6 283.7 -318.7 301.9 -301.9C320.2 -285.2 358.4 -287.5 374.5 -272.1C390.7 -256.8 384.8 -223.8 388.5 -197.9C392.2 -172.1 405.5 -153.3 405.2 -131.6C404.8 -110 390.7 -85.5 398 -63C405.4 -40.6 434.2 -20.3 463 0L0 0Z" fill="#4DFF58"></path></g></svg>